<svg xmlns="http://www.w3.org/2000/svg" viewBox="0 0 160 100" fill="none" stroke-linejoin="round" stroke-linecap="round">
<ellipse cx="80" cy="89" rx="62" ry="5" fill="#000" opacity=".12"/>
<g stroke="#23302b" stroke-width="3">
<path d="M26 75 V34 Q26 26 34 26 H94 Q100 26 102 32 L106 46 H120 Q134 46 134 56 V75 Z" fill="#f2c230"/>
<rect x="34" y="36" width="56" height="26" rx="4" fill="#2b2f33" stroke-width="2.5"/>
<path d="M22 34 Q22 18 36 18 H98 Q106 18 108 26 L110 34 Z" fill="#2fa36b"/>
<path d="M102 34 L112 46 H102 Z" fill="#d4f0fb" stroke-width="2.5"/>
<circle cx="128" cy="58" r="4.5" fill="#ffe27a" stroke-width="2"/>
<circle cx="48" cy="75" r="12" fill="#2b2f33"/><circle cx="48" cy="75" r="4.8" fill="#dfe3e6" stroke-width="2"/><circle cx="124" cy="75" r="12" fill="#2b2f33"/><circle cx="124" cy="75" r="4.8" fill="#dfe3e6" stroke-width="2"/>
</g>
</svg>
