<svg xmlns="http://www.w3.org/2000/svg" viewBox="0 0 160 100" fill="none" stroke-linejoin="round" stroke-linecap="round">
<ellipse cx="80" cy="89" rx="62" ry="5" fill="#000" opacity=".12"/>
<g stroke="#23302b" stroke-width="3">
<path d="M12 75 V32 Q12 26 18 26 H98 Q104 26 108 31 L132 52 H146 Q150 52 150 56 V75 Z" fill="#7b6bd6"/>
<rect x="22" y="34" width="22" height="18" rx="3" fill="#d4f0fb" stroke-width="2.5"/>
<rect x="50" y="34" width="22" height="18" rx="3" fill="#d4f0fb" stroke-width="2.5"/>
<rect x="78" y="34" width="20" height="18" rx="3" fill="#d4f0fb" stroke-width="2.5"/>
<path d="M104 34 L122 52 H104 Z" fill="#d4f0fb" stroke-width="2.5"/>
<path d="M46 56 V74" stroke-width="2.5"/>
<rect x="142" y="58" width="7" height="6" rx="2" fill="#ffe27a" stroke-width="2"/>
<circle cx="44" cy="75" r="12" fill="#2b2f33"/><circle cx="44" cy="75" r="4.8" fill="#dfe3e6" stroke-width="2"/><circle cx="120" cy="75" r="12" fill="#2b2f33"/><circle cx="120" cy="75" r="4.8" fill="#dfe3e6" stroke-width="2"/>
</g>
</svg>
